<svg id="Layer_1" data-name="Layer 1" xmlns="http://www.w3.org/2000/svg" viewBox="0 0 97.13 92.11"><defs><style>.cls-1{fill:#231f20;}</style></defs><path class="cls-1" d="M73,74.28,62.24,76a11.5,11.5,0,0,1-1.76.14,11.38,11.38,0,0,1-6.68-2.19,11.23,11.23,0,0,1-4.51-7.43L47.6,55.68a11.35,11.35,0,0,1,9.48-13l10.78-1.68a11.37,11.37,0,0,1,13,9.47L82.52,61.3A11.38,11.38,0,0,1,73,74.28Z" transform="translate(-16.43 -12.45)"/><path class="cls-1" d="M109.85,47.8l-9.74,2.31A36.08,36.08,0,0,0,35.23,38.18l9.5,4.1L20,60.68,16.43,30.1l9.48,4.07A46.09,46.09,0,0,1,109.85,47.8Z" transform="translate(-16.43 -12.45)"/><path class="cls-1" d="M113.57,86.54l-9.22-4A46.1,46.1,0,0,1,20.24,69.2L30,66.89A36.08,36.08,0,0,0,95,78.55l-9.76-4.19L110,56Z" transform="translate(-16.43 -12.45)"/></svg>