<?xml version="1.0" encoding="UTF-8"?><svg id="Layer_1" xmlns="http://www.w3.org/2000/svg" viewBox="0 0 303.91 128.94">
    <polygon
        points="167.2 14.19 171.09 20.83 167.49 22.75 163.59 16.12 152.92 21.83 151.59 19.59 162.28 13.87 158.38 7.24 161.99 5.31 165.88 11.95 176.56 6.23 177.87 8.48 167.2 14.19"
        style="fill:#be1e2d;" />
    <polygon
        points="277.18 14.19 281.07 20.83 277.47 22.75 273.57 16.12 262.9 21.83 261.58 19.59 272.26 13.87 268.36 7.24 271.97 5.31 275.86 11.95 286.55 6.23 287.86 8.48 277.18 14.19"
        style="fill:#be1e2d;" />
    <polygon
        points="234.48 71.98 238.37 78.62 234.77 80.55 230.87 73.91 220.2 79.62 218.88 77.38 229.56 71.67 225.66 65.03 229.27 63.1 233.16 69.74 243.85 64.02 245.15 66.27 234.48 71.98"
        style="fill:#be1e2d;" />
    <polygon
        points="200.71 41.95 204.59 48.59 200.99 50.51 197.09 43.88 186.42 49.59 185.1 47.35 195.78 41.63 191.88 35 195.5 33.07 199.38 39.71 210.07 33.99 211.38 36.24 200.71 41.95"
        style="fill:#be1e2d;" />
    <polyline points="112.27 66.96 118.93 76.72 136.87 63.1"
        style="fill:none; stroke:#00a651; stroke-miterlimit:10; stroke-width:4px;" />
    <polygon points="302.41 16.76 239.77 99.53 94.07 99.53 94.07 84.27 156.71 1.5 302.41 1.5 302.41 16.76"
        style="fill:none; stroke:#231f20; stroke-miterlimit:10; stroke-width:3px;" />
    <polyline points="302.41 1.5 239.77 84.27 94.07 84.27"
        style="fill:none; stroke:#231f20; stroke-miterlimit:10; stroke-width:3px;" />
    <line x1="239.77" y1="84.27" x2="239.77" y2="99.53"
        style="fill:none; stroke:#231f20; stroke-miterlimit:10; stroke-width:3px;" />
    <polygon points="60.79 103.89 42.96 127.44 1.5 127.44 1.5 116.1 19.33 92.55 60.79 92.55 60.79 103.89"
        style="fill:none; stroke:#231f20; stroke-miterlimit:10; stroke-width:3px;" />
    <polyline points="60.79 92.55 42.96 116.1 1.5 116.1"
        style="fill:none; stroke:#231f20; stroke-miterlimit:10; stroke-width:3px;" />
    <line x1="42.96" y1="116.1" x2="42.96" y2="127.44"
        style="fill:none; stroke:#231f20; stroke-miterlimit:10; stroke-width:3px;" />
    <ellipse cx="49.13" cy="97.11" rx="3.83" ry="1.56" style="fill:none; stroke:#231f20; stroke-miterlimit:10;" />
    <circle cx="21.34" cy="121.77" r="3.12" style="fill:none; stroke:#231f20; stroke-miterlimit:10;" />
    <g>
        <polygon points="34.63 102.43 31.5 99.01 29.54 101.63 32.67 105.05 34.63 102.43" style="fill:#bcbec0;" />
        <polygon points="31.52 106.57 28.39 103.16 26.42 105.77 29.56 109.19 31.52 106.57" style="fill:#bcbec0;" />
        <polygon points="27.82 111.51 28.41 110.72 25.28 107.3 22.12 111.51 25.2 111.2 27.82 111.51"
            style="fill:#bcbec0;" />
        <polygon points="38.61 97.14 32.91 97.14 32.65 97.49 35.78 100.91 38.61 97.14" style="fill:#bcbec0;" />
    </g>
    <g>
        <line x1="93.77" y1="75.66" x2="91.3" y2="76.07"
            style="fill:none; stroke:#a7a9ac; stroke-miterlimit:10; stroke-width:3px;" />
        <line x1="87.94" y1="76.63" x2="71.68" y2="79.35"
            style="fill:none; stroke:#a7a9ac; stroke-dasharray:0 0 0 0 5.68 3.41 5.68 3.41; stroke-miterlimit:10; stroke-width:3px;" />
        <line x1="70" y1="79.64" x2="44.78" y2="83.86"
            style="fill:none; stroke:#a7a9ac; stroke-dasharray:0 0 0 0 0 0 5.68 3.41 5.68 3.41 5.68 3.41; stroke-miterlimit:10; stroke-width:3px;" />
        <line x1="43.1" y1="84.14" x2="40.63" y2="84.55"
            style="fill:none; stroke:#a7a9ac; stroke-miterlimit:10; stroke-width:3px;" />
    </g>
    <polyline points="82.19 71.95 93.77 75.66 85.96 83.49"
        style="fill:none; stroke:#a7a9ac; stroke-miterlimit:10; stroke-width:3px;" />
</svg>