<?xml version="1.0" encoding="UTF-8"?><svg id="Layer_1" xmlns="http://www.w3.org/2000/svg" viewBox="0 0 328.41 256.15">
    <g>
        <g>
            <polygon
                points="111.57 190.34 111.57 197.79 93.74 221.35 93.74 210.01 98.41 203.84 98.81 203.83 98.82 206.12 110.76 190.34 111.57 190.34"
                style="fill:#fff;" />
            <polygon
                points="98.22 203.31 69.81 203.31 69.81 202.86 79.7 189.46 111.57 189.46 111.57 190.34 110.76 190.34 98.82 206.12 98.81 203.83 98.41 203.84 98.22 203.31"
                style="fill:#8dc63f;" />
            <polygon
                points="98.22 203.31 98.41 203.84 93.74 210.01 72.12 210.01 52.28 210.01 70.11 186.45 78.83 186.45 66.52 203.31 69.81 203.31 98.22 203.31"
                style="fill:#ed1c24;" />
            <path d="M93.74,210.01v11.34h-21.62v-2.56c1.72,0,3.12-1.39,3.12-3.11s-1.4-3.12-3.12-3.12v-2.55h21.62Z"
                style="fill:#fff;" />
            <path
                d="M72.12,212.56c1.72,0,3.12,1.39,3.12,3.12s-1.4,3.11-3.12,3.11-3.12-1.39-3.12-3.11,1.4-3.12,3.12-3.12Z"
                style="fill:#fff;" />
            <path d="M72.12,218.79v2.56h-19.84v-11.34h19.84v2.55c-1.72,0-3.12,1.39-3.12,3.12s1.4,3.11,3.12,3.11Z"
                style="fill:#fff;" />
            <polygon points="79.7 189.46 69.81 202.86 69.81 203.31 66.52 203.31 78.83 186.45 79.68 186.45 79.7 189.46"
                style="fill:#fff;" />
        </g>
        <g>
            <polygon
                points="111.57 190.34 111.57 197.79 93.74 221.35 72.12 221.35 52.28 221.35 52.28 210.01 70.11 186.45 78.83 186.45 79.68 186.45 79.7 189.46 111.57 189.46 111.57 190.34"
                style="fill:none; stroke:#231f20; stroke-miterlimit:10; stroke-width:3px;" />
            <polyline
                points="110.76 190.34 98.82 206.12 98.81 203.83 98.41 203.84 93.74 210.01 72.12 210.01 52.28 210.01"
                style="fill:none; stroke:#231f20; stroke-miterlimit:10; stroke-width:3px;" />
            <line x1="93.74" y1="210.01" x2="93.74" y2="221.35"
                style="fill:none; stroke:#231f20; stroke-miterlimit:10; stroke-width:3px;" />
            <path
                d="M72.12,212.56c1.72,0,3.12,1.39,3.12,3.12s-1.4,3.11-3.12,3.11-3.12-1.39-3.12-3.11,1.4-3.12,3.12-3.12Z"
                style="fill:none; stroke:#231f20; stroke-miterlimit:10;" />
            <polyline points="78.83 186.45 66.52 203.31 69.81 203.31 98.22 203.31"
                style="fill:none; stroke:#231f20; stroke-miterlimit:10; stroke-width:2px;" />
            <line x1="79.7" y1="189.46" x2="69.81" y2="202.86"
                style="fill:none; stroke:#231f20; stroke-linecap:round; stroke-miterlimit:10; stroke-width:2px;" />
        </g>
    </g>
    <g>
        <polygon
            points="326.91 163.14 264.27 245.91 118.57 245.91 118.57 230.65 181.21 147.88 326.91 147.88 326.91 163.14"
            style="fill:#fff; stroke:#231f20; stroke-miterlimit:10; stroke-width:3px;" />
        <polyline points="326.91 147.88 264.27 230.65 118.57 230.65"
            style="fill:none; stroke:#231f20; stroke-miterlimit:10; stroke-width:3px;" />
        <line x1="264.27" y1="230.65" x2="264.27" y2="245.91"
            style="fill:none; stroke:#231f20; stroke-miterlimit:10; stroke-width:3px;" />
    </g>
    <g>
        <path
            d="M69.35,223.89c-.57,.69-1.44,1.13-2.4,1.13-1.72,0-3.12-1.4-3.12-3.12,0-.71,.24-1.36,.63-1.88l5.79-6.56c.56-.56,1.34-.91,2.2-.91,1.72,0,3.12,1.4,3.12,3.12,0,.91-.39,1.72-1,2.29l-5.22,5.93Z"
            style="fill:#fff; stroke:#231f20; stroke-miterlimit:10;" />
        <path
            d="M70.06,221.91c0,.75-.27,1.45-.71,1.99-.57,.69-1.44,1.13-2.4,1.13-1.72,0-3.12-1.4-3.12-3.12,0-.71,.24-1.36,.63-1.88,.57-.75,1.47-1.23,2.48-1.23,1.72,0,3.12,1.4,3.12,3.12Z"
            style="fill:#fff; stroke:#231f20; stroke-miterlimit:10;" />
    </g>
    <g>
        <polygon
            points="163.4 164.83 158.3 166.52 153.19 164.83 153.19 109.62 152.06 107.91 152.06 60.47 164.53 60.47 164.53 107.91 163.4 109.62 163.4 164.83"
            style="fill:#fff; stroke:#231f20; stroke-miterlimit:10; stroke-width:3px;" />
        <line x1="153.19" y1="109.62" x2="163.4" y2="109.62"
            style="fill:none; stroke:#231f20; stroke-miterlimit:10; stroke-width:3px;" />
        <line x1="153.19" y1="164.09" x2="163.4" y2="159.3"
            style="fill:none; stroke:#231f20; stroke-miterlimit:10; stroke-width:2px;" />
        <line x1="153.19" y1="158.09" x2="163.4" y2="153.3"
            style="fill:none; stroke:#231f20; stroke-miterlimit:10; stroke-width:2px;" />
        <line x1="153.19" y1="152.07" x2="163.4" y2="147.28"
            style="fill:none; stroke:#231f20; stroke-miterlimit:10; stroke-width:2px;" />
        <line x1="153.19" y1="146.09" x2="163.4" y2="141.31"
            style="fill:none; stroke:#231f20; stroke-miterlimit:10; stroke-width:2px;" />
        <line x1="153.19" y1="140.07" x2="163.4" y2="135.28"
            style="fill:none; stroke:#231f20; stroke-miterlimit:10; stroke-width:2px;" />
        <line x1="153.19" y1="133.87" x2="163.4" y2="129.08"
            style="fill:none; stroke:#231f20; stroke-miterlimit:10; stroke-width:2px;" />
        <line x1="153.19" y1="127.85" x2="163.4" y2="123.06"
            style="fill:none; stroke:#231f20; stroke-miterlimit:10; stroke-width:2px;" />
        <line x1="153.19" y1="121.87" x2="163.4" y2="117.08"
            style="fill:none; stroke:#231f20; stroke-miterlimit:10; stroke-width:2px;" />
        <line x1="153.19" y1="115.85" x2="163.4" y2="111.06"
            style="fill:none; stroke:#231f20; stroke-miterlimit:10; stroke-width:2px;" />
    </g>
    <path d="M190.21,0V57.54c0,2.23-1.82,4.05-4.05,4.05h-56.36c-2.23,0-4.05-1.82-4.05-4.05V0"
        style="fill:#fff; stroke:#231f20; stroke-miterlimit:10; stroke-width:3px;" />
    <rect x="146.28" y="61.6" width="24.04" height="24.04"
        style="fill:#fff; stroke:#231f20; stroke-miterlimit:10; stroke-width:3px;" />
    <rect x="142.61" y="85.64" width="31.37" height="19.04"
        style="fill:#fff; stroke:#231f20; stroke-miterlimit:10; stroke-width:3px;" />
    <line x1="154.82" y1="85.64" x2="154.82" y2="104.68"
        style="fill:none; stroke:#231f20; stroke-miterlimit:10; stroke-width:3px;" />
    <line x1="168.85" y1="85.64" x2="168.85" y2="104.68"
        style="fill:none; stroke:#231f20; stroke-miterlimit:10; stroke-width:3px;" />
    <ellipse cx="148.67" cy="95.16" rx="2.39" ry="4.57"
        style="fill:#fff; stroke:#231f20; stroke-miterlimit:10; stroke-width:2px;" />
    <path
        d="M71.21,99.73c-1.32,0-2.39-2.05-2.39-4.57s1.07-4.57,2.39-4.57h14.44c1.32,0,2.39,2.05,2.39,4.57s-1.07,4.57-2.39,4.57h-14.44Z"
        style="fill:#fff; stroke:#231f20; stroke-miterlimit:10; stroke-width:2px;" />
    <ellipse cx="71.21" cy="95.16" rx="2.39" ry="4.57"
        style="fill:#fff; stroke:#231f20; stroke-miterlimit:10; stroke-width:2px;" />
    <g>
        <g>
            <line x1="94.11" y1="94.84" x2="97.61" y2="94.84"
                style="fill:none; stroke:#ed1c24; stroke-miterlimit:10; stroke-width:2px;" />
            <line x1="99.16" y1="94.84" x2="112.38" y2="94.84"
                style="fill:none; stroke:#ed1c24; stroke-dasharray:0 0 0 0 5.44 1.55 5.44 1.55; stroke-miterlimit:10; stroke-width:2px;" />
            <line x1="113.16" y1="94.84" x2="133.36" y2="94.84"
                style="fill:none; stroke:#ed1c24; stroke-dasharray:0 0 0 0 0 0 5.44 1.55 5.44 1.55 5.44 1.55; stroke-miterlimit:10; stroke-width:2px;" />
            <line x1="134.14" y1="94.84" x2="137.64" y2="94.84"
                style="fill:none; stroke:#ed1c24; stroke-miterlimit:10; stroke-width:2px;" />
        </g>
        <polyline points="99.06 99.73 93.02 94.84 99.06 90"
            style="fill:none; stroke:#ed1c24; stroke-miterlimit:10; stroke-width:2px;" />
    </g>
    <g>
        <g>
            <line x1="116.95" y1="190.46" x2="120.38" y2="189.78"
                style="fill:none; stroke:#ed1c24; stroke-miterlimit:10; stroke-width:2px;" />
            <line x1="121.44" y1="189.58" x2="130.44" y2="187.81"
                style="fill:none; stroke:#ed1c24; stroke-dasharray:0 0 0 0 3.78 1.08 3.78 1.08; stroke-miterlimit:10; stroke-width:2px;" />
            <line x1="130.97" y1="187.71" x2="144.73" y2="185"
                style="fill:none; stroke:#ed1c24; stroke-dasharray:0 0 0 0 0 0 3.78 1.08 3.78 1.08 3.78 1.08; stroke-miterlimit:10; stroke-width:2px;" />
            <line x1="145.26" y1="184.9" x2="148.7" y2="184.23"
                style="fill:none; stroke:#ed1c24; stroke-miterlimit:10; stroke-width:2px;" />
        </g>
        <polyline points="122.75 194.3 115.88 190.67 120.88 184.75"
            style="fill:none; stroke:#ed1c24; stroke-miterlimit:10; stroke-width:2px;" />
    </g>
    <path
        d="M69.9,93.3c-9.07-.24-17.32,4.41-24.11,10.04s-11.88,12.04-15.84,19.44c-3.11,5.81-5.51,11.98-5.9,18.6-.35,5.97,.4,12,1.35,17.89,2.21,13.7,5.99,27.09,8.74,40.68,1.18,5.8,2.23,11.68,2.47,17.61,.23,5.59-.33,11.4-3.15,16.41-2.42,4.3-6.54,6.35-11.01,7.98-5.9,2.15-11.79,4.15-17.12,7.56-1.66,1.06-3.24,2.24-4.78,3.47-.8,.64-.65,1.98,0,2.65,.77,.79,1.87,.63,2.65,0,5.19-4.16,11.12-6.84,17.35-9.03,4.73-1.67,9.74-3.29,13.34-6.97,4.21-4.31,5.86-10.66,6.38-16.5,.48-5.48-.24-11.05-1.1-16.46-2.14-13.43-5.87-26.56-8.58-39.87-1.26-6.18-2.38-12.42-2.75-18.72-.32-5.39,0-10.38,1.81-15.46,2.77-7.7,7.16-14.85,12.71-20.85s12.9-11.91,21.18-14c2.09-.53,4.2-.76,6.36-.7,2.41,.06,2.41-3.69,0-3.75h0Z"
        style="fill:#231f20;" />
    <path
        d="M64.5,221.06c-1.88,3.18-2.66,6.86-3.58,10.4-.78,3.05-1.59,6.62-4.02,8.83-1.32,1.2-3.18,1.8-4.87,2.26-2.03,.56-4.11,.84-6.21,.96-4.68,.27-9.37-.13-14.04-.35-5.05-.24-10.18-.31-15.11,.94-2.34,.59-1.35,4.21,1,3.62,9.17-2.32,18.84,.08,28.16-.46,4.16-.24,8.99-.9,12.5-3.33,3.09-2.14,4.57-5.69,5.59-9.17,1.15-3.94,1.71-8.22,3.82-11.8,1.23-2.08-2.01-3.97-3.24-1.89h0Z"
        style="fill:#231f20;" />
</svg>