<?xml version="1.0" encoding="UTF-8"?>
<svg id="Layer_1" xmlns="http://www.w3.org/2000/svg" viewBox="0 0 307.88 288.65">
    <g>
        <polygon
            points="306.38 161.14 243.73 243.91 98.03 243.91 98.03 228.65 160.68 145.88 306.38 145.88 306.38 161.14"
            style="fill:#fff; stroke:#231f20; stroke-miterlimit:10; stroke-width:3px;" />
        <polyline points="306.38 145.88 243.73 228.65 98.03 228.65"
            style="fill:none; stroke:#231f20; stroke-miterlimit:10; stroke-width:3px;" />
        <line x1="243.73" y1="228.65" x2="243.73" y2="243.91"
            style="fill:none; stroke:#231f20; stroke-miterlimit:10; stroke-width:3px;" />
    </g>
    <g>
        <g>
            <line x1="146.89" y1="184.96" x2="146.89" y2="188.46"
                style="fill:none; stroke:#39b54a; stroke-miterlimit:10; stroke-width:1.75px;" />
            <line x1="146.89" y1="189.76" x2="146.89" y2="200.85"
                style="fill:none; stroke:#39b54a; stroke-dasharray:0 0 0 0 4.56 1.3 4.56 1.3; stroke-miterlimit:10; stroke-width:1.75px;" />
            <line x1="146.89" y1="201.5" x2="146.89" y2="205"
                style="fill:none; stroke:#39b54a; stroke-miterlimit:10; stroke-width:1.75px;" />
        </g>
        <polyline points="142.67 189.08 146.89 183.87 150.95 188.95"
            style="fill:none; stroke:#39b54a; stroke-miterlimit:10; stroke-width:1.75px;" />
    </g>
    <g>
        <polygon
            points="150.06 172.24 132.23 195.79 90.77 195.79 90.77 184.45 108.6 160.89 118.18 160.89 118.19 163.9 150.06 163.9 150.06 172.24"
            style="fill:#fff; stroke:#231f20; stroke-miterlimit:10; stroke-width:3px;" />
        <polyline points="149.25 164.78 137.31 180.56 137.3 178.27 136.9 178.28 132.23 184.45 90.77 184.45"
            style="fill:none; stroke:#231f20; stroke-miterlimit:10; stroke-width:3px;" />
        <line x1="132.23" y1="184.45" x2="132.23" y2="195.79"
            style="fill:none; stroke:#231f20; stroke-miterlimit:10; stroke-width:3px;" />
        <ellipse cx="138.4" cy="165.46" rx="3.83" ry="1.56" style="fill:none; stroke:#231f20; stroke-miterlimit:10;" />
        <circle cx="110.61" cy="190.12" r="3.12" style="fill:none; stroke:#231f20; stroke-miterlimit:10;" />
    </g>
    <g>
        <g>
            <polygon
                points="149.65 164.78 149.65 172.23 131.83 195.79 131.83 184.45 136.5 178.28 136.9 178.27 136.91 180.56 148.85 164.78 149.65 164.78"
                style="fill:#fff;" />
            <polygon
                points="117.79 163.9 149.65 163.9 149.65 164.78 148.85 164.78 136.91 180.56 136.9 178.27 136.5 178.28 136.3 177.75 107.89 177.75 107.89 177.3 117.79 163.9"
                style="fill:#8dc63f;" />
            <polygon
                points="136.3 177.75 136.5 178.28 131.83 184.45 110.21 184.45 90.37 184.45 108.19 160.89 116.92 160.89 104.6 177.75 107.89 177.75 136.3 177.75"
                style="fill:#ed1c24;" />
            <path d="M131.83,184.45v11.34h-21.62v-2.55c1.72,0,3.12-1.4,3.12-3.12s-1.4-3.12-3.12-3.12v-2.55h21.62Z"
                style="fill:#fff;" />
            <circle cx="110.21" cy="190.12" r="3.12" style="fill:#fff;" />
            <path d="M110.21,193.24v2.55h-19.84v-11.34h19.84v2.55c-1.72,0-3.12,1.39-3.12,3.12s1.4,3.12,3.12,3.12Z"
                style="fill:#fff;" />
            <polygon
                points="104.6 177.75 116.92 160.89 117.77 160.89 117.79 163.9 107.89 177.3 107.89 177.75 104.6 177.75"
                style="fill:#fff;" />
        </g>
        <g>
            <polygon
                points="149.65 164.78 149.65 172.23 131.83 195.79 110.21 195.79 90.37 195.79 90.37 184.45 108.19 160.89 116.92 160.89 117.77 160.89 117.79 163.9 149.65 163.9 149.65 164.78"
                style="fill:none; stroke:#231f20; stroke-miterlimit:10; stroke-width:3px;" />
            <polyline
                points="148.85 164.78 136.91 180.56 136.9 178.27 136.5 178.28 131.83 184.45 110.21 184.45 90.37 184.45"
                style="fill:none; stroke:#231f20; stroke-miterlimit:10; stroke-width:3px;" />
            <line x1="131.83" y1="184.45" x2="131.83" y2="195.79"
                style="fill:none; stroke:#231f20; stroke-miterlimit:10; stroke-width:3px;" />
            <circle cx="110.21" cy="190.12" r="3.12" style="fill:none; stroke:#231f20; stroke-miterlimit:10;" />
            <polyline points="116.92 160.89 104.6 177.75 107.89 177.75 136.3 177.75"
                style="fill:none; stroke:#231f20; stroke-miterlimit:10; stroke-width:2px;" />
            <line x1="117.79" y1="163.9" x2="107.89" y2="177.3"
                style="fill:none; stroke:#231f20; stroke-linecap:round; stroke-miterlimit:10; stroke-width:2px;" />
        </g>
    </g>
    <g>
        <g>
            <g>
                <path
                    d="M1.25,176.73c8.14-4.37,16.49-8.51,25.42-10.9,8.93-2.39,16.85-8.86,25.66-6.05,3.11,.99,4.86,.29,7.84,1.63,7.16,3.22,14.5,6.16,22.19,7.73,.92,.19,1.85,.36,2.75,.64,.76,.24,1.49,.57,2.23,.85,3.03,1.13,6.35,1.46,9.56,1.07,1.51-.18,3.03-.52,4.52-.25s2.98,1.36,3.1,2.87c.15,1.87-1.69,3.22-3.31,4.16-5.19,3.04-10.67,6.16-16.68,6.31-1.06,.03-2.12-.04-3.16,.13-.96,.16-1.87,.52-2.8,.81-5.16,1.61-10.98,.91-15.62-1.86-.45-.27-.97-.56-1.45-.36-.27,.11-.46,.36-.64,.6-5.22,6.94-13.45,11.53-22.1,12.33"
                    style="fill:#fff;" />
                <path
                    d="M1.88,177.81c5.74-3.07,11.56-6.05,17.66-8.36,2.91-1.1,5.89-1.89,8.85-2.83,2.68-.84,5.25-1.98,7.82-3.08s5.22-2.2,7.99-2.8,5.43-.39,8.23,.37c2.52,.69,5.09,.51,7.53,1.56,2.93,1.27,5.84,2.56,8.82,3.7s6.08,2.19,9.2,3.02c1.49,.4,2.99,.73,4.5,1.04,1.66,.34,3.14,.9,4.73,1.47,2.8,1,5.85,1.37,8.81,1.13,1.5-.12,2.99-.5,4.5-.43,1.2,.05,3.18,.83,2.69,2.38-.36,1.13-1.67,1.85-2.62,2.42-1.33,.79-2.68,1.56-4.05,2.3-2.68,1.44-5.47,2.72-8.45,3.39s-6.08,.21-9.05,1.18-5.77,1.32-8.75,.89c-1.5-.22-3-.62-4.4-1.2s-2.85-1.93-4.35-1.72c-1.35,.19-2.09,1.71-2.9,2.64-.98,1.12-2.04,2.17-3.17,3.15-4.66,4.01-10.59,6.55-16.7,7.15-1.59,.16-1.6,2.66,0,2.5,5.78-.57,11.36-2.61,16.08-6.01,2.3-1.65,4.4-3.57,6.18-5.77,.18-.22,.7-1.1,.95-1.15,.34-.07,1.44,.81,1.81,.98,1.47,.71,3.01,1.26,4.61,1.6,2.93,.63,5.97,.65,8.91,.02,1.49-.32,2.91-1.01,4.41-1.23,1.65-.24,3.34-.05,5-.27,3.13-.41,6.08-1.52,8.91-2.88s5.65-2.73,7.99-4.62c2.05-1.66,3.05-4.46,1-6.58-2.35-2.43-5.65-1.48-8.6-1.24-3.43,.27-6.5-.44-9.69-1.64s-6.65-1.57-9.9-2.54-6.43-2.13-9.56-3.41c-1.61-.66-3.21-1.34-4.8-2.05-1.38-.61-2.73-1.24-4.23-1.49-1.3-.22-2.63-.22-3.92-.5-1.45-.31-2.83-.8-4.32-.97-2.8-.32-5.64,.17-8.31,1-3.25,1.01-6.32,2.49-9.46,3.78-3.37,1.38-6.89,2.22-10.33,3.39-7.25,2.48-14.12,5.94-20.86,9.55-1.42,.76-.16,2.92,1.26,2.16h0Z"
                    style="fill:#231f20;" />
            </g>
            <g>
                <path
                    d="M90.74,191.11c-1.29,.17-2.57,.39-3.84,.65-.92,.19-1.85,.39-2.79,.36-.92-.04-1.82-.31-2.72-.51-4.42-.97-7.32-.5-11.78,.27"
                    style="fill:#fff;" />
                <path
                    d="M90.41,189.9c-1.83,.25-3.67,.77-5.5,.93s-3.78-.62-5.62-.86c-3.38-.43-6.69,.12-10.01,.69-1.58,.27-.91,2.68,.66,2.41,3.37-.58,6.73-1.08,10.14-.47,1.83,.33,3.52,.91,5.4,.66s3.72-.7,5.6-.96c1.59-.22,.91-2.63-.66-2.41h0Z"
                    style="fill:#231f20;" />
            </g>
            <g>
                <path
                    d="M69.76,185.81c-1.62,2.32-1,5.49-1.75,8.21-.39,1.43-1.18,2.75-1.38,4.22-.21,1.55,.25,3.1,.55,4.63,.07,.36,.13,.74,0,1.09-.11,.31-.36,.55-.59,.8-1.37,1.46-2.16,3.44-2.16,5.44"
                    style="fill:#fff;" />
                <path
                    d="M68.68,185.18c-1.16,1.8-1.31,3.87-1.49,5.95-.09,1.07-.22,2.11-.57,3.14-.37,1.08-.89,2.12-1.12,3.24s-.17,2.25,.01,3.38c.1,.62,.27,1.23,.37,1.85,.12,.73,.02,.88-.44,1.43-1.45,1.71-2.2,3.8-2.26,6.03-.04,1.61,2.46,1.61,2.5,0,.03-1.13,.28-2.2,.82-3.2,.48-.88,1.34-1.51,1.76-2.41,.38-.82,.19-1.66,.03-2.51-.26-1.28-.63-2.59-.39-3.9,.36-1.96,1.39-3.66,1.65-5.68s.12-4.25,1.28-6.06c.88-1.36-1.29-2.61-2.16-1.26h0Z"
                    style="fill:#231f20;" />
            </g>
            <g>
                <path
                    d="M67.04,204.15c1.3-.46,2.66-.76,4.03-.87,.35-.03,.69-.05,1.03-.11,.48-.09,.93-.27,1.39-.44,3.91-1.5,8.12-2.77,12.23-2.02"
                    style="fill:#fff;" />
                <path
                    d="M67.37,205.35c1.57-.54,3.1-.69,4.72-.93,1.39-.21,2.71-.89,4.04-1.33,2.97-.99,6.13-1.71,9.26-1.18,1.57,.27,2.25-2.14,.66-2.41-3.36-.57-6.69-.06-9.92,.96-1.44,.46-2.88,1.23-4.37,1.5-1.73,.31-3.37,.4-5.07,.98-1.51,.52-.86,2.94,.66,2.41h0Z"
                    style="fill:#231f20;" />
            </g>
            <g>
                <path
                    d="M58.89,224.43c-2.05-4.85,.54-11.14,5.42-13.14,2.12-.87,4.51-.99,6.57-2,2.05-1,3.61-2.78,5.6-3.89,2.67-1.49,5.93-1.66,8.55-3.22,1.82-1.08,3.21-2.76,4.88-4.07,2.03-1.59,4.44-2.59,6.82-3.58,1.75-.73,3.72-1.46,5.49-.79,2.12,.8,3.09,3.41,2.7,5.64s-1.83,4.12-3.34,5.8c-7.7,8.57-18.19,14.03-28.44,19.3-2.72,1.4-5.45,2.8-8.28,3.96-2.26,.92-4.6,1.69-6.7,2.94-1.64,.98-3.1,2.23-4.66,3.35-5.43,3.91-11.97,6.11-18.6,6.96-6.63,.86-13.38,.43-19.99-.57"
                    style="fill:#fff;" />
                <path
                    d="M60.1,224.09c-1.55-3.87-.15-8.67,3.4-10.97,2.14-1.39,4.8-1.45,7.13-2.37s4.01-2.79,6.14-4.07c2.27-1.37,4.99-1.67,7.41-2.69s4.22-3.03,6.29-4.72,4.72-2.79,7.21-3.78c2.31-.91,5.06-1.29,5.9,1.63,.7,2.44-.84,4.79-2.36,6.57-1.71,2.01-3.64,3.85-5.65,5.56-4.04,3.43-8.55,6.28-13.16,8.88s-9.7,5.28-14.66,7.65c-2.68,1.28-5.5,2.22-8.2,3.46-2.54,1.16-4.6,2.92-6.86,4.52-10.84,7.7-24.78,8.03-37.46,6.14-1.57-.23-2.25,2.17-.66,2.41,12.35,1.84,25.58,1.74,36.69-4.67,2.65-1.53,4.89-3.64,7.52-5.2,2.79-1.66,5.97-2.56,8.92-3.9,5.5-2.5,10.9-5.39,16.16-8.37s9.92-6.02,14.27-9.85c3.62-3.19,8.96-7.83,8-13.24-.39-2.22-1.92-4.25-4.2-4.73-2.8-.6-5.73,.98-8.21,2.11-2.8,1.27-4.98,2.98-7.24,5.02-1.1,.99-2.27,1.84-3.66,2.37s-2.94,.87-4.39,1.36-2.72,1.1-3.93,1.98c-1.3,.94-2.48,2.07-3.9,2.83-2.74,1.46-6.03,1.3-8.65,3.12-4.22,2.94-6.21,8.78-4.27,13.61,.59,1.47,3.01,.83,2.41-.66h0Z"
                    style="fill:#231f20;" />
            </g>
            <g>
                <path
                    d="M110.32,189.95c2.31,.23,4.18,2.27,4.64,4.55s-.3,4.67-1.62,6.57c-1.32,1.91-3.14,3.4-5.01,4.77-6.3,4.62-13.39,8.15-20.87,10.4"
                    style="fill:#fff;" />
                <path
                    d="M109.98,191.15c3.4,.48,4.45,4.11,3.45,7.02-1.14,3.32-4.23,5.56-6.99,7.49-5.91,4.13-12.43,7.28-19.32,9.38-1.53,.47-.88,2.88,.66,2.41,8.11-2.47,15.89-6.34,22.57-11.59,3.04-2.38,5.73-5.52,5.97-9.55,.21-3.46-2.09-7.07-5.68-7.57-1.57-.22-2.25,2.19-.66,2.41h0Z"
                    style="fill:#231f20;" />
            </g>
            <g>
                <path d="M85.05,188.29l-.83,3.58" style="fill:#fff;" />
                <path
                    d="M83.84,187.96l-.83,3.58c-.15,.64,.2,1.38,.87,1.54,.64,.15,1.38-.19,1.54-.87l.83-3.58c.15-.64-.2-1.38-.87-1.54-.64-.15-1.38,.19-1.54,.87h0Z"
                    style="fill:#231f20;" />
            </g>
            <g>
                <path d="M84.5,196.52c-.06,.99-.02,1.98,.13,2.96" style="fill:#fff;" />
                <path
                    d="M83.25,196.52c-.07,1.1,0,2.2,.17,3.29,.04,.29,.33,.61,.57,.75,.27,.16,.66,.22,.96,.13s.59-.29,.75-.57l.13-.3c.06-.22,.06-.44,0-.66-.01-.08-.02-.15-.03-.23l.04,.33c-.12-.9-.15-1.82-.1-2.73,.02-.31-.15-.67-.37-.88s-.57-.38-.88-.37-.66,.12-.88,.37-.34,.54-.37,.88h0Z"
                    style="fill:#231f20;" />
            </g>
            <g>
                <path d="M72.52,208.78c-.46,1.52-.91,3.05-1.05,4.64s.08,3.24,.9,4.6" style="fill:#fff;" />
                <path
                    d="M71.31,208.44c-.99,3.32-1.88,7-.02,10.2,.81,1.39,2.97,.13,2.16-1.26-1.47-2.53-.52-5.62,.28-8.27,.19-.65-.23-1.36-.87-1.54s-1.34,.22-1.54,.87h0Z"
                    style="fill:#231f20;" />
            </g>
            <g>
                <path d="M84.74,203.93c-.61,1.54-.48,3.36,.34,4.8" style="fill:#fff;" />
                <path
                    d="M83.54,203.6c-.71,1.86-.5,4.03,.46,5.76,.32,.57,1.15,.81,1.71,.45s.79-1.1,.45-1.71c-.05-.09-.1-.18-.15-.28-.02-.05-.05-.09-.07-.14-.05-.12-.04-.1,.03,.08,.01-.04-.08-.21-.1-.26-.03-.09-.06-.17-.08-.26-.06-.2-.11-.41-.14-.61v-.08c-.03-.14-.03-.1,0,.1,.02-.09-.02-.22-.03-.31-.01-.18-.01-.37,0-.55,0-.11,0-.21,.02-.31,0-.05,0-.1,.02-.16-.03,.2-.03,.23-.01,.1,.07-.39,.17-.77,.31-1.14,.23-.61-.26-1.4-.87-1.54-.71-.16-1.29,.22-1.54,.87h0Z"
                    style="fill:#231f20;" />
            </g>
            <g>
                <path d="M52.32,196.92c-4.57,5.84-6,13.57-6.04,20.99-.02,2.89,.15,5.85-.65,8.63" style="fill:#fff;" />
                <path
                    d="M51.25,196.29c-3.09,4.01-4.82,8.88-5.6,13.85-.38,2.44-.58,4.9-.61,7.36-.04,2.92,.16,5.85-.61,8.71-.42,1.56,1.99,2.22,2.41,.66,.71-2.63,.7-5.34,.69-8.04,0-2.54,.09-5.09,.46-7.61,.72-4.93,2.35-9.68,5.41-13.66,.98-1.27-1.19-2.52-2.16-1.26h0Z"
                    style="fill:#231f20;" />
            </g>
            <g>
                <path d="M43.94,195.7c-.58,3.78-3.36,6.94-6.64,8.9s-7.05,2.93-10.75,3.87" style="fill:#fff;" />
                <path
                    d="M42.73,195.37c-1.3,7.8-9.97,10.24-16.52,11.9-1.56,.39-.9,2.81,.66,2.41,4.15-1.05,8.48-2.15,12.04-4.64,3.06-2.14,5.59-5.25,6.22-9.01,.26-1.57-2.15-2.25-2.41-.66h0Z"
                    style="fill:#231f20;" />
            </g>
            <g>
                <path
                    d="M91.16,171.72c.9,.4,1.5,1.25,2.27,1.85,1.63,1.28,3.91,1.36,5.95,.98,.45-.08,.91-.19,1.3-.43s.71-.64,.75-1.1c.06-.7-.53-1.28-1.06-1.74"
                    style="fill:#fff;" />
                <path
                    d="M90.53,172.79c.58,.28,.96,.69,1.44,1.14s1.03,.91,1.63,1.22c1.28,.66,2.75,.9,4.19,.83s3.25-.23,4.25-1.39c.56-.65,.78-1.51,.56-2.34-.2-.75-.77-1.36-1.34-1.86-.51-.44-1.27-.5-1.77,0-.45,.45-.51,1.32,0,1.77,.19,.17,.4,.34,.56,.54,0,0,.17,.36,.14,.17,0-.03,.04-.03,.05-.05-.06,.15-.05,.1-.12,.17-.11,.1-.29,.17-.46,.21-.96,.28-1.98,.34-2.99,.26-.84-.07-1.76-.34-2.47-.89-.81-.63-1.44-1.49-2.4-1.95-.61-.29-1.35-.17-1.71,.45-.32,.55-.16,1.42,.45,1.71h0Z"
                    style="fill:#231f20;" />
            </g>
        </g>
        <g>
            <g>
                <path
                    d="M1.25,176.57c8.14-4.37,16.49-8.51,25.42-10.9,8.93-2.39,16.85-8.86,25.66-6.05,3.11,.99,4.86,.29,7.84,1.63,7.16,3.22,14.5,6.16,22.19,7.73,.92,.19,1.85,.36,2.75,.64,.76,.24,1.49,.57,2.23,.85,3.03,1.13,6.35,1.46,9.56,1.07,1.51-.18,3.03-.52,4.52-.25s2.98,1.36,3.1,2.87c.15,1.87-1.69,3.22-3.31,4.16-5.19,3.04-10.67,6.16-16.68,6.31-1.06,.03-2.12-.04-3.16,.13-.96,.16-1.87,.52-2.8,.81-5.16,1.61-10.98,.91-15.62-1.86-.45-.27-.97-.56-1.45-.36-.27,.11-.46,.36-.64,.6"
                    style="fill:#fff;" />
                <path
                    d="M1.88,177.65c4.86-2.6,9.78-5.14,14.87-7.25,2.49-1.03,5.01-1.96,7.58-2.76,2.41-.74,4.83-1.37,7.18-2.29,4.42-1.74,8.72-4.06,13.44-4.92,2.29-.42,4.6-.32,6.84,.33s4.33,.55,6.45,1.12c2.51,.67,4.91,2.06,7.31,3.05s5.01,1.99,7.57,2.84,5.29,1.63,7.99,2.22c1.22,.27,2.46,.45,3.65,.83,1.32,.42,2.57,1.02,3.92,1.38,2.52,.68,5.18,.89,7.77,.63,1.78-.18,5.97-1.37,6.75,1.15,.63,2.02-3.24,3.63-4.54,4.37-2.34,1.34-4.72,2.63-7.25,3.57-2.8,1.04-5.51,1.41-8.47,1.47-2.79,.06-5.28,1.39-8.03,1.68s-5.61-.04-8.26-.98c-2.04-.72-4.85-3.38-6.68-1.03-.98,1.25,.78,3.03,1.77,1.77,.36-.46,.86,.14,1.3,.37,.49,.26,.99,.5,1.5,.72,1.24,.54,2.53,.97,3.85,1.26,2.53,.55,5.13,.63,7.68,.24,1.24-.19,2.43-.52,3.63-.9,1.41-.46,2.68-.62,4.16-.63,2.68-.02,5.3-.5,7.82-1.4s5.08-2.18,7.48-3.54c2-1.13,4.41-2.21,5.78-4.13,1.29-1.8,.98-4.13-.71-5.56-2.12-1.78-4.81-1.28-7.34-.97-2.82,.34-5.69,.13-8.4-.74-1.34-.43-2.61-1.04-3.97-1.39s-2.89-.6-4.32-.94c-5.66-1.37-11.12-3.43-16.46-5.74-2.36-1.02-4.53-2.1-7.12-2.39-1.12-.12-2.24-.2-3.33-.49-1.24-.33-2.43-.68-3.71-.82-4.99-.56-9.77,1.38-14.26,3.29-2.63,1.12-5.26,2.29-8,3.12-3.06,.92-6.11,1.8-9.1,2.95-6.07,2.35-11.88,5.29-17.61,8.36-1.42,.76-.16,2.92,1.26,2.16h0Z"
                    style="fill:#231f20;" />
            </g>
            <path d="M69.76,187.67c1.61,0,1.61-2.5,0-2.5s-1.61,2.5,0,2.5h0Z" style="fill:#231f20;" />
            <g>
                <path
                    d="M91.16,171.56c.9,.4,1.5,1.25,2.27,1.85,1.63,1.28,3.91,1.36,5.95,.98,.45-.08,.91-.19,1.3-.43s.71-.64,.75-1.1c.06-.7-.53-1.28-1.06-1.74"
                    style="fill:#fff;" />
                <path
                    d="M90.53,172.64c.58,.28,.96,.69,1.44,1.14s1.03,.91,1.63,1.22c1.28,.66,2.75,.9,4.19,.83s3.25-.23,4.25-1.39c.56-.65,.78-1.51,.56-2.34-.2-.75-.77-1.36-1.34-1.86-.51-.44-1.27-.5-1.77,0-.45,.45-.51,1.32,0,1.77,.19,.17,.4,.34,.56,.54,0,0,.17,.36,.14,.17,0-.03,.04-.03,.05-.05-.06,.15-.05,.1-.12,.17-.11,.1-.29,.17-.46,.21-.96,.28-1.98,.34-2.99,.26-.84-.07-1.76-.34-2.47-.89-.81-.63-1.44-1.49-2.4-1.95-.61-.29-1.35-.17-1.71,.45-.32,.55-.16,1.42,.45,1.71h0Z"
                    style="fill:#231f20;" />
            </g>
        </g>
    </g>
    <g>
        <path
            d="M107.25,198.34c-.57,.69-1.44,1.13-2.4,1.13-1.72,0-3.12-1.4-3.12-3.12,0-.71,.24-1.36,.63-1.88l5.79-6.56c.56-.56,1.34-.91,2.2-.91,1.72,0,3.12,1.4,3.12,3.12,0,.91-.39,1.72-1,2.29l-5.22,5.93Z"
            style="fill:#fff; stroke:#231f20; stroke-miterlimit:10;" />
        <path
            d="M107.97,196.36c0,.75-.27,1.45-.71,1.99-.57,.69-1.44,1.13-2.4,1.13-1.72,0-3.12-1.4-3.12-3.12,0-.71,.24-1.36,.63-1.88,.57-.75,1.47-1.23,2.48-1.23,1.72,0,3.12,1.4,3.12,3.12Z"
            style="fill:#fff; stroke:#231f20; stroke-miterlimit:10;" />
    </g>
    <g>
        <polygon
            points="142.87 164.83 137.76 166.52 132.66 164.83 132.66 109.62 131.53 107.91 131.53 60.47 144 60.47 144 107.91 142.87 109.62 142.87 164.83"
            style="fill:#fff; stroke:#231f20; stroke-miterlimit:10; stroke-width:3px;" />
        <line x1="132.66" y1="109.62" x2="142.87" y2="109.62"
            style="fill:none; stroke:#231f20; stroke-miterlimit:10; stroke-width:3px;" />
        <line x1="132.66" y1="164.09" x2="142.87" y2="159.3"
            style="fill:none; stroke:#231f20; stroke-miterlimit:10; stroke-width:2px;" />
        <line x1="132.66" y1="158.09" x2="142.87" y2="153.3"
            style="fill:none; stroke:#231f20; stroke-miterlimit:10; stroke-width:2px;" />
        <line x1="132.66" y1="152.07" x2="142.87" y2="147.28"
            style="fill:none; stroke:#231f20; stroke-miterlimit:10; stroke-width:2px;" />
        <line x1="132.66" y1="146.09" x2="142.87" y2="141.31"
            style="fill:none; stroke:#231f20; stroke-miterlimit:10; stroke-width:2px;" />
        <line x1="132.66" y1="140.07" x2="142.87" y2="135.28"
            style="fill:none; stroke:#231f20; stroke-miterlimit:10; stroke-width:2px;" />
        <line x1="132.66" y1="133.87" x2="142.87" y2="129.08"
            style="fill:none; stroke:#231f20; stroke-miterlimit:10; stroke-width:2px;" />
        <line x1="132.66" y1="127.85" x2="142.87" y2="123.06"
            style="fill:none; stroke:#231f20; stroke-miterlimit:10; stroke-width:2px;" />
        <line x1="132.66" y1="121.87" x2="142.87" y2="117.08"
            style="fill:none; stroke:#231f20; stroke-miterlimit:10; stroke-width:2px;" />
        <line x1="132.66" y1="115.85" x2="142.87" y2="111.06"
            style="fill:none; stroke:#231f20; stroke-miterlimit:10; stroke-width:2px;" />
    </g>
    <path d="M169.68,0V57.54c0,2.23-1.82,4.05-4.05,4.05h-56.36c-2.23,0-4.05-1.82-4.05-4.05V0"
        style="fill:#fff; stroke:#231f20; stroke-miterlimit:10; stroke-width:3px;" />
    <rect x="125.74" y="61.6" width="24.04" height="24.04"
        style="fill:#fff; stroke:#231f20; stroke-miterlimit:10; stroke-width:3px;" />
    <rect x="122.08" y="85.64" width="31.37" height="19.04"
        style="fill:#fff; stroke:#231f20; stroke-miterlimit:10; stroke-width:3px;" />
    <line x1="134.29" y1="85.64" x2="134.29" y2="104.68"
        style="fill:none; stroke:#231f20; stroke-miterlimit:10; stroke-width:3px;" />
    <line x1="148.31" y1="85.64" x2="148.31" y2="104.68"
        style="fill:none; stroke:#231f20; stroke-miterlimit:10; stroke-width:3px;" />
    <ellipse cx="128.14" cy="95.16" rx="2.39" ry="4.57"
        style="fill:#fff; stroke:#231f20; stroke-miterlimit:10; stroke-width:2px;" />
    <path
        d="M113.51,99.73c-1.32,0-2.39-2.05-2.39-4.57s1.07-4.57,2.39-4.57h14.44c1.32,0,2.39,2.05,2.39,4.57s-1.07,4.57-2.39,4.57h-14.44Z"
        style="fill:#fff; stroke:#231f20; stroke-miterlimit:10; stroke-width:2px;" />
    <ellipse cx="113.51" cy="95.16" rx="2.39" ry="4.57"
        style="fill:#fff; stroke:#231f20; stroke-miterlimit:10; stroke-width:2px;" />
    <g>
        <g>
            <line x1="127.88" y1="200.38" x2="127.88" y2="203.88"
                style="fill:none; stroke:#39b54a; stroke-miterlimit:10; stroke-width:2px;" />
            <line x1="127.88" y1="205.38" x2="127.88" y2="218.16"
                style="fill:none; stroke:#39b54a; stroke-dasharray:0 0 0 0 5.26 1.5 5.26 1.5; stroke-miterlimit:10; stroke-width:2px;" />
            <line x1="127.88" y1="218.92" x2="127.88" y2="222.42"
                style="fill:none; stroke:#39b54a; stroke-miterlimit:10; stroke-width:2px;" />
        </g>
        <polyline points="122.99 205.33 127.88 199.28 132.72 205.33"
            style="fill:none; stroke:#39b54a; stroke-miterlimit:10; stroke-width:2px;" />
    </g>
    <g>
        <g>
            <line x1="95.86" y1="94.9" x2="92.36" y2="94.9"
                style="fill:none; stroke:#39b54a; stroke-miterlimit:10; stroke-width:2px;" />
            <line x1="90.8" y1="94.9" x2="77.59" y2="94.9"
                style="fill:none; stroke:#39b54a; stroke-dasharray:0 0 0 0 5.44 1.55 5.44 1.55; stroke-miterlimit:10; stroke-width:2px;" />
            <line x1="76.81" y1="94.9" x2="56.6" y2="94.9"
                style="fill:none; stroke:#39b54a; stroke-dasharray:0 0 0 0 0 0 5.44 1.55 5.44 1.55 5.44 1.55; stroke-miterlimit:10; stroke-width:2px;" />
            <line x1="55.82" y1="94.9" x2="52.32" y2="94.9"
                style="fill:none; stroke:#39b54a; stroke-miterlimit:10; stroke-width:2px;" />
        </g>
        <polyline points="90.9 90 96.95 94.9 90.9 99.73"
            style="fill:none; stroke:#39b54a; stroke-miterlimit:10; stroke-width:2px;" />
    </g>
    <path
        d="M111.84,93.61c-5.44,.15-10.02,3.72-13.85,7.24-2.01,1.85-3.9,3.81-5.83,5.74s-4.16,3.88-6.06,6.02c-4.2,4.74-7.48,10.2-10.3,15.85-2.6,5.24-5.32,10.43-7.5,15.87-2.39,5.97-3.72,12.19-4.38,18.58-.1,1.01,.94,1.88,1.88,1.88,1.1,0,1.77-.86,1.88-1.88,.56-5.4,1.68-10.7,3.56-15.79s4.27-9.66,6.62-14.38c2.66-5.35,5.4-10.67,9.12-15.37,3.31-4.18,7.41-7.76,11.19-11.51s8.22-8.36,13.67-8.51c2.41-.07,2.42-3.82,0-3.75h0Z"
        style="fill:#231f20;" />
    <path
        d="M59.12,231.43c2.05,17.35-4.54,34.73-17.73,46.21-3.46,3.02-7.33,5.53-11.45,7.56-2.17,1.06-.27,4.3,1.89,3.24,16.06-7.89,27.69-23.39,30.62-41.06,.88-5.28,1.04-10.63,.41-15.94-.12-1.01-.78-1.88-1.88-1.88-.92,0-1.99,.86-1.88,1.88h0Z"
        style="fill:#231f20;" />
    <path
        d="M103.49,195.11c-7.6,6.84-13.89,15.16-18.3,24.39-2.34,4.9-4.19,10.04-7.16,14.61s-6.89,8.75-10.54,12.93c-4.48,5.13-8.96,10.26-13.44,15.38-1.58,1.81,1.06,4.47,2.65,2.65,3.93-4.5,7.87-9.01,11.8-13.51,3.72-4.25,7.58-8.42,10.96-12.96s5.44-9.33,7.66-14.32c2.1-4.74,4.55-9.28,7.51-13.54,3.31-4.76,7.2-9.1,11.52-12.98,1.8-1.62-.86-4.26-2.65-2.65h0Z"
        style="fill:#231f20;" />
    <polyline points="117.33 160.89 105.01 177.76 136.71 177.76"
        style="fill:none; stroke:#231f20; stroke-miterlimit:10; stroke-width:2px;" />
    <line x1="118.19" y1="163.9" x2="108.3" y2="177.3"
        style="fill:none; stroke:#231f20; stroke-linecap:round; stroke-miterlimit:10; stroke-width:2px;" />
</svg>